<?xml version="1.0" standalone="no"?>
<!DOCTYPE svg PUBLIC "-//W3C//DTD SVG 20010904//EN"
 "http://www.w3.org/TR/2001/REC-SVG-20010904/DTD/svg10.dtd">
<svg version="1.0" xmlns="http://www.w3.org/2000/svg"
 width="512.000000pt" height="512.000000pt" viewBox="0 0 512.000000 512.000000"
 preserveAspectRatio="xMidYMid meet">
<metadata>
Created by potrace 1.11, written by Peter Selinger 2001-2013
</metadata>
<g transform="translate(0.000000,512.000000) scale(0.100000,-0.100000)"
fill="#000000" stroke="none">
<path d="M4488 4189 c-71 -36 -101 -79 -126 -179 -11 -41 -72 -325 -138 -631
l-118 -556 -53 44 c-109 88 -207 119 -349 110 -260 -17 -510 -170 -733 -447
-311 -386 -456 -800 -396 -1133 27 -154 108 -275 219 -328 126 -60 266 -45
451 46 233 115 462 332 660 625 32 47 58 86 59 87 0 1 1 -78 2 -175 0 -252 36
-402 119 -500 119 -141 387 -92 603 112 55 51 82 103 82 156 0 43 -26 80 -57
80 -10 0 -60 -21 -112 -47 -79 -40 -105 -48 -162 -51 -67 -4 -70 -3 -103 30
-20 20 -41 56 -51 89 -23 73 -31 300 -16 470 40 457 196 1188 366 1709 77 237
86 282 75 363 -22 150 -96 192 -222 126z m-650 -1505 c77 -38 151 -145 152
-219 1 -134 -167 -449 -378 -712 -188 -233 -411 -389 -571 -401 -134 -9 -176
47 -174 233 2 229 99 473 294 736 229 309 497 453 677 363z"/>
<path d="M2312 3719 c-51 -5 -195 -22 -320 -38 -624 -84 -798 -99 -1242 -111
-390 -10 -457 -15 -512 -37 -63 -25 -88 -118 -50 -193 13 -26 29 -39 67 -54
70 -27 265 -29 520 -6 366 33 538 43 568 31 36 -14 36 -25 -8 -370 -34 -274
-72 -612 -97 -871 -8 -79 -13 -264 -13 -445 0 -324 8 -413 45 -484 34 -67 101
-111 169 -111 76 0 150 94 151 190 0 25 -10 92 -22 150 -41 191 -29 562 38
1215 32 315 71 628 87 690 11 45 17 52 59 73 120 60 595 96 956 72 110 -7 211
-10 226 -6 37 9 57 46 59 108 1 67 -35 147 -75 166 -75 35 -380 51 -606 31z"/>
</g>
</svg>
